<svg width="565" height="114" viewBox="0 0 565 114" fill="none" xmlns="http://www.w3.org/2000/svg">
<path d="M70.6 6.44799C72.808 6.44799 74.44 6.544 75.496 6.736C76.648 6.832 77.896 7.264 79.24 8.03199C80.68 8.79999 81.688 10.096 82.264 11.92C82.84 13.744 83.128 16.192 83.128 19.264C83.128 22.336 82.84 24.784 82.264 26.608C81.688 28.432 80.68 29.728 79.24 30.496C77.8 31.168 76.504 31.6 75.352 31.792C74.296 31.888 72.616 31.936 70.312 31.936H26.248V46.48H54.616C56.92 46.48 58.6 46.576 59.656 46.768C60.808 46.864 62.104 47.296 63.544 48.064C66.04 49.504 67.288 53.296 67.288 59.44C67.288 66.16 65.464 70.144 61.816 71.392C60.28 71.872 57.832 72.112 54.472 72.112H26.248V99.328C26.248 101.632 26.152 103.312 25.96 104.368C25.864 105.424 25.432 106.672 24.664 108.112C23.32 110.704 19.576 112 13.432 112C6.712 112 2.776 110.176 1.624 106.528C1.048 104.992 0.76 102.544 0.76 99.184V19.12C0.76 14.224 1.672 10.912 3.496 9.18399C5.32 7.35999 8.776 6.44799 13.864 6.44799H70.6ZM539.664 44.176C540.24 38.8 544.032 36.112 551.04 36.112C554.784 36.112 557.568 36.4 559.392 36.976C561.216 37.552 562.464 38.56 563.136 40C563.904 41.44 564.336 42.736 564.432 43.888C564.624 44.944 564.72 46.576 564.72 48.784V99.184C564.72 101.392 564.624 103.072 564.432 104.224C564.336 105.28 563.952 106.528 563.28 107.968C561.936 110.464 558.624 111.712 553.344 111.712C548.16 111.712 544.656 111.088 542.832 109.84C541.104 108.496 540.096 106.576 539.808 104.08C536.256 109.168 530.304 111.712 521.952 111.712C513.696 111.712 506.016 107.92 498.912 100.336C491.808 92.752 488.256 83.968 488.256 73.984C488.256 63.904 491.808 55.12 498.912 47.632C506.112 40.048 513.984 36.256 522.528 36.256C525.792 36.256 528.768 36.832 531.456 37.984C534.144 39.136 536.016 40.24 537.072 41.296C538.128 42.256 538.992 43.216 539.664 44.176ZM513.456 74.128C513.456 77.296 514.704 80.176 517.2 82.768C519.696 85.264 522.72 86.512 526.272 86.512C529.824 86.512 532.752 85.216 535.056 82.624C537.456 80.032 538.656 77.2 538.656 74.128C538.656 70.96 537.504 68.032 535.2 65.344C532.992 62.656 529.968 61.312 526.128 61.312C522.384 61.312 519.312 62.656 516.912 65.344C514.608 68.032 513.456 70.96 513.456 74.128Z" fill="#068CBA"/>
<path d="M144 36.976C145.824 37.552 147.312 38.56 148.464 40C149.712 41.344 150.336 43.552 150.336 46.624C150.336 49.696 149.424 53.056 147.6 56.704C145.776 60.352 143.136 62.176 139.68 62.176C137.952 62.176 136.272 61.792 134.64 61.024C133.104 60.256 131.04 59.872 128.448 59.872C125.856 59.872 123.408 60.784 121.104 62.608C118.896 64.432 117.792 66.64 117.792 69.232V99.472C117.792 101.68 117.696 103.36 117.504 104.512C117.408 105.568 116.976 106.816 116.208 108.256C114.768 110.752 111.024 112 104.976 112C100.368 112 97.0555 111.184 95.0395 109.552C93.5035 108.208 92.6395 106.144 92.4475 103.36C92.4475 102.4 92.4475 101.008 92.4475 99.184V48.64C92.4475 46.432 92.4955 44.8 92.5915 43.744C92.7835 42.592 93.2155 41.344 93.8875 40C95.2315 37.408 98.9755 36.112 105.12 36.112C110.88 36.112 114.48 37.216 115.92 39.424C116.976 40.96 117.504 42.544 117.504 44.176C117.984 43.504 118.656 42.688 119.52 41.728C120.48 40.768 122.448 39.472 125.424 37.84C128.4 36.208 130.992 35.392 133.2 35.392C135.504 35.392 137.424 35.536 138.96 35.824C140.496 36.016 142.176 36.4 144 36.976ZM457.853 73.984L477.005 89.824C479.405 91.84 480.893 93.376 481.469 94.432C482.141 95.488 482.477 96.496 482.477 97.456C482.477 99.76 480.989 102.88 478.013 106.816C474.749 110.848 471.869 112.864 469.373 112.864C467.261 112.864 464.333 111.472 460.589 108.688L459.149 107.68C456.941 105.856 453.533 102.688 448.925 98.176C444.317 93.568 440.813 90.304 438.413 88.384V99.472C438.413 101.68 438.317 103.36 438.125 104.512C438.029 105.568 437.597 106.816 436.829 108.256C435.581 110.752 431.885 112 425.741 112C419.693 112 415.997 110.704 414.653 108.112C413.981 106.672 413.549 105.424 413.357 104.368C413.261 103.216 413.213 101.536 413.213 99.328V13.072C413.213 10.864 413.261 9.232 413.357 8.176C413.549 7.024 413.981 5.72799 414.653 4.288C415.997 1.696 419.741 0.399995 425.885 0.399995C430.493 0.399995 433.757 1.216 435.677 2.848C437.309 4.192 438.173 6.304 438.269 9.18399C438.365 10.048 438.413 11.392 438.413 13.216V58.864C440.141 57.424 442.733 54.976 446.189 51.52C449.741 48.064 452.381 45.616 454.109 44.176L455.837 43.024C459.197 40.432 462.077 39.136 464.477 39.136C466.877 39.136 469.613 41.104 472.685 45.04C475.853 48.88 477.437 51.904 477.437 54.112C477.437 56.32 475.661 58.912 472.109 61.888L457.853 73.984Z" fill="#EFC519"/>
<path d="M231.412 65.056C231.412 70.912 229.924 75.28 226.948 78.16C224.068 80.944 220.852 82.336 217.3 82.336H183.172C183.172 85.024 184.756 87.28 187.924 89.104C191.092 90.928 194.26 91.84 197.428 91.84C202.996 91.84 207.364 91.264 210.532 90.112L212.116 89.536C214.42 88.48 216.34 87.952 217.876 87.952C220.948 87.952 223.588 90.112 225.796 94.432C227.044 97.024 227.668 99.232 227.668 101.056C227.668 109.6 217.444 113.872 196.996 113.872C189.892 113.872 183.556 112.672 177.988 110.272C172.516 107.776 168.244 104.512 165.172 100.48C159.124 92.704 156.1 84.016 156.1 74.416C156.1 62.32 159.988 52.672 167.764 45.472C175.636 38.176 185.428 34.528 197.14 34.528C210.484 34.528 220.276 39.232 226.516 48.64C229.78 53.632 231.412 59.104 231.412 65.056ZM201.028 69.232C204.676 69.232 206.5 67.696 206.5 64.624C206.5 62.416 205.636 60.64 203.908 59.296C202.276 57.952 199.876 57.28 196.708 57.28C193.636 57.28 190.564 58.576 187.492 61.168C184.42 63.664 182.884 66.352 182.884 69.232H201.028Z" fill="#106E66"/>
<path d="M291.639 4.57599C292.407 3.13599 293.703 2.128 295.527 1.552C297.351 0.975993 299.751 0.687991 302.727 0.687991C305.799 0.687991 308.247 0.975993 310.071 1.552C311.895 2.128 313.143 3.13599 313.815 4.57599C314.583 6.016 315.015 7.312 315.111 8.46399C315.303 9.52 315.399 11.152 315.399 13.36V99.328C315.399 101.536 315.303 103.216 315.111 104.368C315.015 105.424 314.583 106.624 313.815 107.968C312.375 110.56 308.295 111.856 301.575 111.856C294.951 111.856 291.255 109.504 290.487 104.8C286.455 109.408 280.839 111.712 273.639 111.712C264.999 111.712 257.127 107.968 250.023 100.48C242.919 92.896 239.367 84.112 239.367 74.128C239.367 64.048 242.919 55.216 250.023 47.632C257.223 40.048 265.095 36.256 273.639 36.256C280.743 36.256 286.263 38.656 290.199 43.456V13.216C290.199 11.008 290.247 9.37599 290.343 8.32C290.535 7.16799 290.967 5.91999 291.639 4.57599ZM268.311 82.768C270.807 85.36 273.831 86.656 277.383 86.656C280.935 86.656 283.863 85.36 286.167 82.768C288.567 80.176 289.767 77.344 289.767 74.272C289.767 71.104 288.615 68.176 286.311 65.488C284.103 62.8 281.079 61.456 277.239 61.456C273.399 61.456 270.327 62.8 268.023 65.488C265.719 68.08 264.567 70.96 264.567 74.128C264.567 77.296 265.815 80.176 268.311 82.768Z" fill="#A21C3D"/>
<path d="M324.709 74.128C324.709 62.608 328.741 53.104 336.805 45.616C344.869 38.128 354.085 34.384 364.453 34.384C374.821 34.384 383.989 38.128 391.957 45.616C399.925 53.008 403.909 62.464 403.909 73.984C403.909 81.952 401.845 89.056 397.717 95.296C393.589 101.44 388.549 106 382.597 108.976C376.741 111.856 370.645 113.296 364.309 113.296C357.973 113.296 351.829 111.76 345.877 108.688C339.925 105.52 334.885 100.912 330.757 94.864C326.725 88.72 324.709 81.808 324.709 74.128ZM354.805 84.496C357.877 86.8 360.997 87.952 364.165 87.952C367.333 87.952 370.501 86.752 373.669 84.352C376.837 81.952 378.421 78.4 378.421 73.696C378.421 68.992 376.933 65.488 373.957 63.184C370.981 60.88 367.765 59.728 364.309 59.728C360.853 59.728 357.637 60.928 354.661 63.328C351.685 65.728 350.197 69.28 350.197 73.984C350.197 78.592 351.733 82.096 354.805 84.496Z" fill="#531210"/>
</svg>
